<svg preserveAspectRatio="none" overflow="visible" style="display: block;" width="88.5324" height="51.8816" viewBox="0 0 88.5324 51.8816" fill="none" xmlns="http://www.w3.org/2000/svg">
<g id="Group">
<path id="Vector" d="M7.55167 11.1083C7.17258 11.1083 6.81408 11.1083 6.45561 11.0877C6.43499 10.223 6.43502 9.19113 6.43502 7.84195C6.43502 6.59815 6.43502 5.37613 6.47741 4.1953C6.83588 4.1953 7.21497 4.17472 7.57347 4.17472C8.92264 4.17472 9.49185 4.57558 9.49185 7.58883C9.49185 10.6021 8.92265 11.1083 7.55285 11.1083H7.55167ZM0.0270068 0C0.0693958 2.14973 0.0899849 4.57439 0.0899849 7.92553C0.0899849 11.2767 0.0693958 13.5741 0.0270068 15.8087H8.31102C13.9173 15.8087 15.9411 14.2064 15.9411 7.27153C15.9411 1.24381 13.6012 0 8.39579 0H0.0270068Z" fill="#3AA1CD"/>
<path id="Vector_2" d="M16.8343 0C16.8972 2.17153 16.919 4.55259 16.919 7.90495C16.919 11.2573 16.8984 13.5959 16.8343 15.8099H29.7338C29.7133 15.1777 29.7133 14.2294 29.7133 13.4494C29.7133 12.6065 29.7133 11.6158 29.7338 11.0042C27.71 11.0248 25.2442 11.0466 23.3476 11.0466V9.42367C25.4768 9.42367 27.7742 9.46605 29.5448 9.50846C29.5244 8.53834 29.5448 6.66234 29.5656 5.77702C27.7523 5.83999 25.4973 5.86179 23.3476 5.86179V4.30187C25.1812 4.30187 27.5211 4.30187 29.7338 4.34426C29.7133 3.81743 29.6915 2.86914 29.6915 2.10976C29.6915 1.39278 29.7119 0.507457 29.7338 0.00242223H16.8343V0Z" fill="#3AA1CD"/>
<path id="Vector_3" d="M37.6489 15.8087C37.6063 13.5318 37.6063 11.2343 37.6063 7.88315C37.6063 4.53197 37.6063 2.23451 37.6489 0H30.9246C30.9877 2.23451 30.9877 4.55259 30.9877 7.90495C30.9877 11.2573 30.9877 13.5536 30.9246 15.8099H37.6489V15.8087Z" fill="#3AA1CD"/>
<path id="Vector_4" d="M49.1639 0C49.2267 1.18084 49.2898 3.16221 49.3116 5.01644C49.3321 5.88118 49.3744 6.91303 49.4594 8.0515H49.3963C49.1431 7.10318 48.849 6.19605 48.5328 5.39552C47.6898 3.45653 46.3831 0.885324 46.1095 0H39.0266C39.0897 2.17153 39.0692 4.55259 39.0692 7.90495C39.0692 11.2573 39.0485 13.6589 39.0266 15.8099H44.7179C44.6753 15.1559 44.6753 13.6602 44.6343 11.468C44.5917 10.2242 44.5494 9.04461 44.444 7.71601L44.5071 7.6954C44.8026 8.79146 45.1597 9.86694 45.6237 10.9412C46.5513 12.6271 47.5844 14.5249 48.1115 15.8099H54.7096C54.667 13.8079 54.667 11.405 54.667 7.88434C54.667 4.36365 54.6877 1.37098 54.7519 0.00121111H49.1661L49.1639 0Z" fill="#3AA1CD"/>
<path id="Vector_5" d="M0.0270068 17.899C0.0899849 20.0705 0.111785 22.4516 0.111785 25.8039C0.111785 29.1564 0.0911958 31.4951 0.0270068 33.709H12.9266C12.906 33.0768 12.906 32.1284 12.906 31.3485C12.906 30.5055 12.906 29.5147 12.9266 28.9033C10.9028 28.9238 8.43699 28.9456 6.54038 28.9456V27.3227C8.66952 27.3227 10.967 27.3651 12.7376 27.4075C12.7171 26.4374 12.7376 24.5613 12.7582 23.676C10.9452 23.739 8.69011 23.7608 6.54038 23.7608V22.2009C8.37399 22.2009 10.7139 22.2009 12.9266 22.2433C12.906 21.7164 12.8842 20.7681 12.8842 20.0088C12.8842 19.2918 12.9048 18.4065 12.9266 17.9014H0.0270068V17.899Z" fill="#3AA1CD"/>
<path id="Vector_6" d="M21.8945 25.4031C21.3047 25.4031 20.7984 25.4031 20.377 25.3825C20.3564 24.1811 20.3564 22.9167 20.3564 21.6728C20.8832 21.6522 21.4318 21.6304 21.7055 21.6522C22.8016 21.6317 23.3079 21.9889 23.3079 23.5077C23.3079 24.8775 22.8864 25.4043 21.8957 25.4043L21.8945 25.4031ZM25.7725 27.0889C28.5133 26.7304 29.5452 25.529 29.5452 22.5146C29.5452 19.1004 27.3736 17.899 23.4956 17.899H14.1385C14.2015 20.1759 14.2233 22.4516 14.2233 25.8039C14.2233 29.1564 14.1603 31.432 14.1385 33.709H20.6725C20.5465 32.4651 20.4618 30.7163 20.4194 28.713C20.8614 28.6925 21.1363 28.6925 21.5578 28.6925C22.5909 28.6925 22.8016 29.2411 23.1177 32.023C23.3079 33.3723 23.5598 33.709 24.4875 33.709H29.9896C29.8213 32.9495 29.6105 31.5167 29.4205 30.4836C29.0196 28.2285 28.0712 27.554 25.7737 27.2379V27.0902L25.7725 27.0889Z" fill="#3AA1CD"/>
<path id="Vector_7" d="M37.2104 30.2717C36.0924 30.2717 35.7353 29.8708 35.7353 28.9432C35.7353 28.8173 35.7353 28.6695 35.7558 28.5218C35.3344 28.5423 34.765 28.5641 34.1328 28.5641C32.8262 28.5641 31.4345 28.4587 30.4657 28.3956C30.4233 28.8378 30.4026 29.2594 30.4026 29.6603C30.4026 32.7171 31.9627 34.002 37.7165 34.002C43.1546 34.002 44.988 32.4214 44.988 29.0909C44.988 25.7604 43.7018 24.6013 39.5502 23.9473C37.0215 23.5464 36.7053 23.0196 36.7053 22.2191C36.7053 21.6499 37.0638 21.3132 38.0122 21.3132C39.2342 21.3132 39.5513 21.7346 39.5513 22.494C39.5513 22.5994 39.5513 22.7471 39.5308 22.9155C39.9522 22.8949 40.6062 22.8731 41.3219 22.8731C42.4604 22.8731 43.8933 22.936 44.7155 23.0208C44.7363 22.6418 44.7581 22.2833 44.7581 21.9454C44.7581 18.9939 43.3253 17.6035 37.592 17.6035C32.5113 17.6035 30.3832 19.121 30.3832 22.5146C30.3832 25.3389 31.2893 26.9194 35.9472 27.5528C38.2241 27.8689 38.6236 28.3752 38.6236 29.2605C38.6236 29.9145 38.287 30.2731 37.2116 30.2731L37.2104 30.2717Z" fill="#3AA1CD"/>
<path id="Vector_8" d="M45.2063 17.899C45.227 18.6366 45.227 19.7956 45.227 20.8287C45.227 21.8618 45.227 23.0838 45.2063 23.8856C46.1765 23.8649 47.1454 23.8431 48.0731 23.8431C48.0526 28.4175 48.01 32.6964 47.9676 33.7283C48.9379 33.6652 50.4336 33.6652 51.5297 33.6652C52.6256 33.6652 54.1649 33.6652 55.0915 33.7283C55.0491 32.6953 55.0284 28.4164 55.0079 23.8431C55.9356 23.8638 56.884 23.8638 57.8528 23.8856C57.8105 23.085 57.8105 21.8412 57.8105 20.8287C57.8105 19.8162 57.8105 18.6366 57.8528 17.899H45.2063Z" fill="#3AA1CD"/>
<path id="Vector_9" d="M58.5706 17.899C58.6337 20.0705 58.6541 22.4516 58.6541 25.8039C58.6541 29.1564 58.6337 31.4951 58.5706 33.709H71.4703C71.4496 33.0768 71.4496 32.1284 71.4496 31.3485C71.4496 30.5055 71.4496 29.5147 71.4703 28.9033C69.4465 28.9238 66.9806 28.9456 65.0841 28.9456V27.3227C67.213 27.3227 69.5107 27.3651 71.2813 27.4075C71.2606 26.4374 71.2814 24.5613 71.3018 23.676C69.4888 23.739 67.2338 23.7608 65.0841 23.7608V22.2009C66.9175 22.2009 69.2576 22.2009 71.4703 22.2433C71.4496 21.7164 71.4277 20.7681 71.4277 20.0088C71.4277 19.2918 71.4485 18.4065 71.4703 17.9014H58.5706V17.899Z" fill="#3AA1CD"/>
<path id="Vector_10" d="M80.4386 25.4031C79.8488 25.4031 79.3425 25.4031 78.9211 25.3825C78.9004 24.1811 78.9004 22.9167 78.9004 21.6728C79.4274 21.6522 79.976 21.6304 80.2497 21.6522C81.3458 21.6317 81.8518 21.9889 81.8518 23.5077C81.8518 24.8775 81.4305 25.4043 80.4397 25.4043L80.4386 25.4031ZM84.3177 27.0889C87.0586 26.7304 88.0903 25.529 88.0903 22.5146C88.0903 19.1004 85.9188 17.899 82.0408 17.899H72.6826C72.7457 20.1759 72.7673 22.4516 72.7673 25.8039C72.7673 29.1564 72.7045 31.432 72.6826 33.709H79.2166C79.0907 32.4651 79.0058 30.7163 78.9634 28.713C79.4056 28.6925 79.6806 28.6925 80.1019 28.6925C81.135 28.6925 81.3458 29.2411 81.6617 32.023C81.8518 33.3723 82.1039 33.709 83.0315 33.709H88.5324C88.3642 32.9495 88.1534 31.5167 87.9633 30.4836C87.5624 28.2285 86.614 27.554 84.3166 27.2379V27.0902L84.3177 27.0889Z" fill="#3AA1CD"/>
<path id="Vector_11" d="M0 35.798C0.0205889 36.5356 0.0205889 37.6945 0.0205889 38.7276C0.0205889 39.7607 0.0205889 40.9827 0 41.7845C0.970102 41.764 1.93899 41.7421 2.86671 41.7421C2.84612 46.3165 2.80374 50.5954 2.76134 51.6273C3.73145 51.5642 5.22718 51.5642 6.32323 51.5642C7.41929 51.5642 8.9574 51.5642 9.88511 51.6273C9.84273 50.5943 9.82212 46.3154 9.80034 41.7421C10.7281 41.7629 11.6763 41.7629 12.6464 41.7845C12.6041 40.9841 12.6041 39.7402 12.6041 38.7276C12.6041 37.7153 12.6041 36.5356 12.6464 35.798H0Z" fill="#3AA1CD"/>
<path id="Vector_12" d="M20.7307 45.178H19.5293C19.7194 43.7441 19.9301 42.2689 20.1615 40.9417C20.3516 40.0357 20.5199 39.0233 20.6459 38.2227H20.7512C20.8772 39.0233 21.025 40.0564 21.2357 40.921C21.467 42.2484 21.6996 43.7454 21.8897 45.1794H20.7307V45.178ZM29.7097 51.6066C28.6562 47.6016 26.7378 37.9053 26.3369 35.798H15.4829C15.1668 37.863 13.2908 47.6234 12.3001 51.6066H18.897C18.9176 50.9744 18.9818 49.9632 19.1078 48.7619H22.2906C22.396 49.9839 22.4589 50.9962 22.4807 51.6066H29.7111H29.7097Z" fill="#3AA1CD"/>
<path id="Vector_13" d="M39.2702 41.5944C40.0706 41.5521 41.1668 41.5521 42.3271 41.5521C43.4871 41.5521 44.7299 41.5725 45.6999 41.5944C45.7206 41.2358 45.7422 40.9199 45.7422 40.5832C45.7422 37.3374 43.9716 35.5244 37.922 35.5244C31.8728 35.5244 29.5328 37.4428 29.5328 43.4923C29.5328 49.5418 32.1041 51.8816 37.8579 51.8816C44.8135 51.8816 46.0147 49.331 45.678 42.6289C44.139 42.6917 42.6212 42.6712 41.4622 42.6712C40.451 42.6712 39.0799 42.6712 37.7309 42.6289C37.7513 43.0502 37.7513 43.6193 37.7513 44.231C37.7513 44.61 37.7513 45.6431 37.7309 46.0221C38.3207 46.0017 38.9747 46.0017 39.6274 45.9798C39.4797 47.2442 39.0376 47.7081 38.0468 47.7081C36.5501 47.7081 36.108 46.5697 36.108 43.577C36.108 40.3942 36.5924 39.4035 37.8786 39.4035C38.827 39.4035 39.2702 39.8675 39.2702 40.9633V41.5955V41.5944Z" fill="#3AA1CD"/>
</g>
</svg>
